# xmcd CD database file
# 
# Track frame offsets:
# 	160
# 	14247
# 	31465
# 	42670
# 	56650
# 	68550
# 	82377
# 	96637
# 	116017
# 	131797
# 	147417
# 
# Disc length: 2104 seconds
# 
# Submitted via: Nero 6, 3, 1, 17
# 
# Revision: 0
# Processed by: cddbd v1.5.1PL0 Copyright (c) Steve Scherf et al.
#
DISCID=b208360b
DTITLE=High Country - Sunset On The Prairie
DYEAR=1900
DGENRE=
TTITLE0=A Lifetime's So Long
TTITLE1=Redwood Country
TTITLE2=I See Through You
TTITLE3=Valley Of Peace
TTITLE4=B.A.R.T. By Night
TTITLE5=Beyond The Fields Of Home
TTITLE6=Number Two Express
TTITLE7=Rain And Snow
TTITLE8=Highway Of Pain
TTITLE9=The Long Road
TTITLE10=Sunset On The Prairie
EXTD=
EXTT0=
EXTT1=
EXTT2=
EXTT3=
EXTT4=
EXTT5=
EXTT6=
EXTT7=
EXTT8=
EXTT9=
EXTT10=
PLAYORDER=
